<?xml version="1.0" encoding="UTF-8" standalone="no"?>
<svg
   xmlns:dc="http://purl.org/dc/elements/1.1/"
   xmlns:cc="http://creativecommons.org/ns#"
   xmlns:rdf="http://www.w3.org/1999/02/22-rdf-syntax-ns#"
   xmlns:svg="http://www.w3.org/2000/svg"
   xmlns="http://www.w3.org/2000/svg"
   id="svg8"
   version="1.1"
   viewBox="0 0 116.02164 28.3972"
   height="28.3972mm"
   width="116.02164mm">
  <defs
     id="defs2" />
  <metadata
     id="metadata5">
    <rdf:RDF>
      <cc:Work
         rdf:about="">
        <dc:format>image/svg+xml</dc:format>
        <dc:type
           rdf:resource="http://purl.org/dc/dcmitype/StillImage" />
        <dc:title></dc:title>
      </cc:Work>
    </rdf:RDF>
  </metadata>
  <g
     transform="translate(-46.989179,-134.3014)"
     id="layer1">
    <g
       transform="translate(2.3879905,6.30576)"
       id="text3715"
       style="font-style:normal;font-weight:normal;font-size:10.58333302px;line-height:1.25;font-family:sans-serif;letter-spacing:0px;word-spacing:0px;fill:#000000;fill-opacity:1;stroke:none;stroke-width:0.26458332"
       aria-label="RAGE">
      <path
         id="path3717"
         style="font-style:normal;font-variant:normal;font-weight:normal;font-stretch:normal;font-size:50.79999924px;font-family:Trench;-inkscape-font-specification:Trench;stroke-width:0.26458332"
         d="m 46.277589,129.67204 c -1.0668,1.0668 -1.6764,2.54 -1.6764,4.064 v 21.9964 c 0,0.3556 0.3048,0.6604 0.6604,0.6604 0.4064,0 0.7112,-0.3048 0.7112,-0.6604 v -9.4488 h 12.141199 l 9.906,9.906 c 0.1016,0.1524 0.3048,0.2032 0.4572,0.2032 0.4064,0 0.7112,-0.3048 0.7112,-0.6604 0,-0.2032 -0.1016,-0.3556 -0.2032,-0.508 l -8.8392,-8.8392 1.27,-0.1524 c 4.572,-0.5588 8.0264,-4.572 8.0264,-9.0932 0,-4.9784 -4.1656,-9.144 -9.144,-9.144 h -9.956799 c -1.4732,0 -2.8448,0.5588 -3.9116,1.524 z m 13.360399,15.24 H 45.972789 v -11.176 c 0,-1.1684 0.4572,-2.286 1.27,-3.0988 l 0.4572,-0.4572 v 0.0508 c 0.762,-0.5588 1.6764,-0.8636 2.6416,-0.8636 h 9.956799 c 4.1148,0 7.7724,3.4544 7.7724,7.7724 0,4.318 -3.6576,7.7724 -7.7724,7.7724 z" />
      <path
         id="path3719"
         style="font-style:normal;font-variant:normal;font-weight:normal;font-stretch:normal;font-size:50.79999924px;font-family:Trench;-inkscape-font-specification:Trench;stroke-width:0.26458332"
         d="m 91.78645,128.75764 c -0.762,-0.508 -1.6764,-0.762 -2.5908,-0.762 -0.8636,0 -1.6764,0.2032 -2.4384,0.6604 l -0.1016,0.1016 c -0.8128,0.508 -1.3716,1.2192 -1.7272,2.0828 l -10.3124,24.6888 c -0.0508,0.1016 -0.0508,0.1524 -0.0508,0.254 0,0.3556 0.3048,0.6096 0.6096,0.6096 0.254,0 0.4572,-0.1016 0.5588,-0.3556 l 3.0988,-7.4168 h 20.7772 l 3.0988,7.4168 c 0.0508,0.254 0.254,0.3556 0.508,0.3556 0.3556,0 0.6096,-0.3048 0.6096,-0.6604 0,-0.0508 0,-0.1524 0,-0.2032 l -10.3124,-24.6888 c -0.3556,-0.8128 -0.9144,-1.524 -1.6256,-2.032 h -0.0508 z m -3.8608,0.7112 c 0.4064,-0.1524 0.8636,-0.254 1.27,-0.254 0.7112,0 1.3716,0.2032 1.9304,0.5588 l 0.0508,0.0508 c 0.5588,0.3556 0.9652,0.9144 1.1684,1.4732 l 6.7564,16.1036 h -19.7612 l 6.7056,-16.1036 c 0.254,-0.6096 0.7112,-1.1176 1.27,-1.524 l 0.6096,-0.4064 z" />
      <path
         id="path3721"
         style="font-style:normal;font-variant:normal;font-weight:normal;font-stretch:normal;font-size:50.79999924px;font-family:Trench;-inkscape-font-specification:Trench;stroke-width:0.26458332"
         d="m 118.81443,138.10484 h -0.6096 c -0.4064,0 -0.7112,0.3048 -0.7112,0.6604 0,0.4064 0.3048,0.7112 0.7112,0.7112 h 6.5024 c 4.1656,0 7.7724,3.5052 7.7724,7.7724 0,4.318 -3.6068,7.7724 -7.7724,7.7724 h -6.5532 c -5.7912,0 -10.5664,-4.7752 -10.5664,-10.5664 v -4.5212 c 0,-5.7912 4.7752,-10.5664 10.5664,-10.5664 h 12.5476 c 0.4064,0 0.7112,-0.3048 0.7112,-0.7112 0,-0.3556 -0.3048,-0.6604 -0.7112,-0.6604 h -12.5476 c -6.5024,0 -11.938,5.4356 -11.938,11.938 v 4.5212 c 0,6.5024 5.3848,11.938 11.938,11.938 h 6.5532 c 4.9784,0 9.144,-4.1656 9.144,-9.144 0,-4.9784 -4.1656,-9.144 -9.144,-9.144 z" />
      <path
         id="path3723"
         style="font-style:normal;font-variant:normal;font-weight:normal;font-stretch:normal;font-size:50.79999924px;font-family:Trench;-inkscape-font-specification:Trench;stroke-width:0.26458332"
         d="m 149.90403,127.99564 c -6.5532,0 -11.938,5.4864 -11.938,11.938 v 4.5212 c 0,6.5024 5.4356,11.938 11.938,11.938 h 10.0076 c 0.4064,0 0.7112,-0.3048 0.7112,-0.6604 0,-0.4064 -0.3048,-0.7112 -0.7112,-0.7112 h -10.0076 c -5.7912,0 -10.5664,-4.7752 -10.5664,-10.5664 v -1.5748 h 18.796 c 0.3556,0 0.6604,-0.3048 0.6604,-0.7112 0,-0.3556 -0.3048,-0.6604 -0.6604,-0.6604 h -18.796 v -1.5748 c 0,-5.7912 4.7752,-10.5664 10.5664,-10.5664 h 10.0076 c 0.4064,0 0.7112,-0.3048 0.7112,-0.7112 0,-0.3556 -0.3048,-0.6604 -0.7112,-0.6604 z" />
    </g>
  </g>
</svg>
